<svg width="155" height="32" viewBox="0 0 155 32" fill="none" xmlns="http://www.w3.org/2000/svg">
<path d="M16.8179 21.7427H14.1979L8.71789 16.1027L3.25789 21.7427H0.637888L7.41789 14.7427L0.637888 7.74267H3.25789L16.8179 21.7427ZM16.8179 7.74267L10.7179 14.0227L9.41789 12.6827L14.1979 7.74267H16.8179ZM32.1846 21.7427H18.8046V7.74267H20.8046V19.7427H32.1846V21.7427ZM48.7385 21.7427H34.2585V7.74267H48.7385V9.74268H36.2585V19.7427H48.7385V21.7427ZM47.0385 15.7427H37.2585V13.7427H47.0385V15.7427ZM67.0316 7.74267L59.6716 21.7427H57.3916L50.0316 7.74267H52.3116L58.5316 19.5827L64.7516 7.74267H67.0316ZM83.6893 21.7427H69.2093V7.74267H83.6893V9.74268H71.2093V19.7427H83.6893V21.7427ZM81.9893 15.7427H72.2093V13.7427H81.9893V15.7427ZM99.7424 21.7427H86.3624V7.74267H88.3624V19.7427H99.7424V21.7427ZM117.276 17.7427C117.276 18.476 117.096 19.1493 116.736 19.7627C116.376 20.3627 115.896 20.8427 115.296 21.2027C114.696 21.5627 114.023 21.7427 113.276 21.7427H101.116V19.7427H113.276C113.836 19.7427 114.31 19.5493 114.696 19.1627C115.083 18.7627 115.276 18.2893 115.276 17.7427C115.276 17.196 115.083 16.7293 114.696 16.3427C114.31 15.9427 113.836 15.7427 113.276 15.7427H105.116C104.383 15.7427 103.71 15.5627 103.096 15.2027C102.496 14.8427 102.016 14.3627 101.656 13.7627C101.296 13.1493 101.116 12.476 101.116 11.7427C101.116 11.0093 101.296 10.3427 101.656 9.74268C102.016 9.12934 102.496 8.64268 103.096 8.28268C103.71 7.92267 104.383 7.74267 105.116 7.74267H116.276V9.74268H105.116C104.57 9.74268 104.096 9.94268 103.696 10.3427C103.31 10.7293 103.116 11.196 103.116 11.7427C103.116 12.2893 103.31 12.7627 103.696 13.1627C104.096 13.5493 104.57 13.7427 105.116 13.7427H113.276C114.023 13.7427 114.696 13.9227 115.296 14.2827C115.896 14.6427 116.376 15.1293 116.736 15.7427C117.096 16.3427 117.276 17.0093 117.276 17.7427ZM134.809 7.74267L134.789 14.7427C134.789 15.716 134.609 16.6293 134.249 17.4827C133.889 18.3227 133.389 19.0627 132.749 19.7027C132.109 20.3427 131.363 20.8427 130.509 21.2027C129.669 21.5627 128.769 21.7427 127.809 21.7427H126.329C125.369 21.7427 124.463 21.5627 123.609 21.2027C122.769 20.8427 122.029 20.3427 121.389 19.7027C120.749 19.0493 120.249 18.3027 119.889 17.4627C119.529 16.6093 119.349 15.7027 119.349 14.7427V7.74267H121.349V14.7427C121.349 15.6627 121.569 16.5027 122.009 17.2627C122.463 18.0093 123.069 18.6093 123.829 19.0627C124.589 19.516 125.423 19.7427 126.329 19.7427H127.809C128.729 19.7427 129.563 19.516 130.309 19.0627C131.069 18.6093 131.669 18.0093 132.109 17.2627C132.563 16.5027 132.789 15.6627 132.789 14.7427V7.74267H134.809ZM154.04 12.7427C154.04 13.6627 153.814 14.5027 153.36 15.2627C152.92 16.0093 152.32 16.6093 151.56 17.0627C150.8 17.516 149.96 17.7427 149.04 17.7427H141V15.7627H149.04C149.6 15.7627 150.107 15.6293 150.56 15.3627C151.014 15.0827 151.374 14.716 151.64 14.2627C151.907 13.796 152.04 13.2893 152.04 12.7427C152.04 12.1827 151.907 11.676 151.64 11.2227C151.374 10.7693 151.014 10.4093 150.56 10.1427C150.107 9.87601 149.6 9.74268 149.04 9.74268H139.88V21.7427H137.88V7.74267H149.04C149.96 7.74267 150.8 7.96934 151.56 8.42268C152.32 8.86268 152.92 9.46268 153.36 10.2227C153.814 10.9827 154.04 11.8227 154.04 12.7427Z" fill="url(#paint0_linear_360_492)"/>
<defs>
<linearGradient id="paint0_linear_360_492" x1="0" y1="17.3712" x2="155" y2="17.3712" gradientUnits="userSpaceOnUse">
<stop offset="0.0963572" stop-color="#12E5FE"/>
<stop offset="0.211538" stop-color="#6C92FF"/>
<stop offset="0.639423" stop-color="#8B73F8"/>
<stop offset="0.78" stop-color="#C640FF"/>
</linearGradient>
</defs>
</svg>
