<svg width="155" height="24" viewBox="0 0 155 24" fill="none" xmlns="http://www.w3.org/2000/svg">
<path d="M16.8179 21.0571H14.1979L8.71789 15.4171L3.25789 21.0571H0.637888L7.41789 14.0571L0.637888 7.05713H3.25789L16.8179 21.0571ZM16.8179 7.05713L10.7179 13.3371L9.41789 11.9971L14.1979 7.05713H16.8179ZM32.1846 21.0571H18.8046V7.05713H20.8046V19.0571H32.1846V21.0571ZM48.7385 21.0571H34.2585V7.05713H48.7385V9.05713H36.2585V19.0571H48.7385V21.0571ZM47.0385 15.0571H37.2585V13.0571H47.0385V15.0571ZM67.0316 7.05713L59.6716 21.0571H57.3916L50.0316 7.05713H52.3116L58.5316 18.8971L64.7516 7.05713H67.0316ZM83.6893 21.0571H69.2093V7.05713H83.6893V9.05713H71.2093V19.0571H83.6893V21.0571ZM81.9893 15.0571H72.2093V13.0571H81.9893V15.0571ZM99.7424 21.0571H86.3624V7.05713H88.3624V19.0571H99.7424V21.0571ZM117.276 17.0571C117.276 17.7905 117.096 18.4638 116.736 19.0771C116.376 19.6771 115.896 20.1571 115.296 20.5171C114.696 20.8771 114.023 21.0571 113.276 21.0571H101.116V19.0571H113.276C113.836 19.0571 114.31 18.8638 114.696 18.4771C115.083 18.0771 115.276 17.6038 115.276 17.0571C115.276 16.5105 115.083 16.0438 114.696 15.6571C114.31 15.2571 113.836 15.0571 113.276 15.0571H105.116C104.383 15.0571 103.71 14.8771 103.096 14.5171C102.496 14.1571 102.016 13.6771 101.656 13.0771C101.296 12.4638 101.116 11.7905 101.116 11.0571C101.116 10.3238 101.296 9.65713 101.656 9.05713C102.016 8.4438 102.496 7.95713 103.096 7.59713C103.71 7.23713 104.383 7.05713 105.116 7.05713H116.276V9.05713H105.116C104.57 9.05713 104.096 9.25713 103.696 9.65713C103.31 10.0438 103.116 10.5105 103.116 11.0571C103.116 11.6038 103.31 12.0771 103.696 12.4771C104.096 12.8638 104.57 13.0571 105.116 13.0571H113.276C114.023 13.0571 114.696 13.2371 115.296 13.5971C115.896 13.9571 116.376 14.4438 116.736 15.0571C117.096 15.6571 117.276 16.3238 117.276 17.0571ZM134.809 7.05713L134.789 14.0571C134.789 15.0305 134.609 15.9438 134.249 16.7971C133.889 17.6371 133.389 18.3771 132.749 19.0171C132.109 19.6571 131.363 20.1571 130.509 20.5171C129.669 20.8771 128.769 21.0571 127.809 21.0571H126.329C125.369 21.0571 124.463 20.8771 123.609 20.5171C122.769 20.1571 122.029 19.6571 121.389 19.0171C120.749 18.3638 120.249 17.6171 119.889 16.7771C119.529 15.9238 119.349 15.0171 119.349 14.0571V7.05713H121.349V14.0571C121.349 14.9771 121.569 15.8171 122.009 16.5771C122.463 17.3238 123.069 17.9238 123.829 18.3771C124.589 18.8305 125.423 19.0571 126.329 19.0571H127.809C128.729 19.0571 129.563 18.8305 130.309 18.3771C131.069 17.9238 131.669 17.3238 132.109 16.5771C132.563 15.8171 132.789 14.9771 132.789 14.0571V7.05713H134.809ZM154.04 12.0571C154.04 12.9771 153.814 13.8171 153.36 14.5771C152.92 15.3238 152.32 15.9238 151.56 16.3771C150.8 16.8305 149.96 17.0571 149.04 17.0571H141V15.0771H149.04C149.6 15.0771 150.107 14.9438 150.56 14.6771C151.014 14.3971 151.374 14.0305 151.64 13.5771C151.907 13.1105 152.04 12.6038 152.04 12.0571C152.04 11.4971 151.907 10.9905 151.64 10.5371C151.374 10.0838 151.014 9.7238 150.56 9.45713C150.107 9.19046 149.6 9.05713 149.04 9.05713H139.88V21.0571H137.88V7.05713H149.04C149.96 7.05713 150.8 7.28379 151.56 7.73713C152.32 8.17713 152.92 8.77713 153.36 9.53713C153.814 10.2971 154.04 11.1371 154.04 12.0571Z" fill="url(#paint0_linear_360_492)"/>
<defs>
<linearGradient id="paint0_linear_360_492" x1="0" y1="13.0286" x2="155" y2="13.0286" gradientUnits="userSpaceOnUse">
<stop offset="0.0963572" stop-color="#12E5FE"/>
<stop offset="0.211538" stop-color="#6C92FF"/>
<stop offset="0.639423" stop-color="#8B73F8"/>
<stop offset="0.78" stop-color="#C640FF"/>
</linearGradient>
</defs>
</svg>
